<?xml version="1.0" encoding="utf-8"?>
<!-- Generator: Adobe Illustrator 16.0.1, SVG Export Plug-In . SVG Version: 6.00 Build 0)  -->
<!DOCTYPE svg PUBLIC "-//W3C//DTD SVG 1.0//EN" "http://www.w3.org/TR/2001/REC-SVG-20010904/DTD/svg10.dtd">
<svg version="1.0" id="Layer_1" xmlns="http://www.w3.org/2000/svg" xmlns:xlink="http://www.w3.org/1999/xlink" x="0px" y="0px"
	 width="48.963px" height="49.512px" viewBox="0 0 48.963 49.512" enable-background="new 0 0 48.963 49.512" xml:space="preserve">
<path opacity="0.2" fill-rule="evenodd" clip-rule="evenodd" fill="#FCEE22" d="M29.777,10.794c10.596,0,19.186,8.667,19.186,19.359
	c0,10.691-8.59,19.358-19.186,19.358c-10.595,0-19.184-8.667-19.184-19.358C10.594,19.461,19.183,10.794,29.777,10.794z"/>
<path fill-rule="evenodd" clip-rule="evenodd" fill="#05A94F" d="M23.981,0c13.244,0,23.981,10.834,23.981,24.199
	c0,13.364-10.737,24.198-23.981,24.198S0,37.563,0,24.199C0,10.834,10.737,0,23.981,0z"/>
<path opacity="0.6" fill-rule="evenodd" clip-rule="evenodd" fill="none" stroke="#FFFFFF" stroke-miterlimit="10" d="M24.982,1.675
	c12.875,0,23.311,10.532,23.311,23.523c0,12.992-10.436,23.524-23.311,23.524S1.67,38.19,1.67,25.198
	C1.67,12.207,12.107,1.675,24.982,1.675z"/>
</svg>
