<?xml version="1.0" encoding="utf-8"?>
<!-- Generator: Adobe Illustrator 16.0.1, SVG Export Plug-In . SVG Version: 6.00 Build 0)  -->
<!DOCTYPE svg PUBLIC "-//W3C//DTD SVG 1.0//EN" "http://www.w3.org/TR/2001/REC-SVG-20010904/DTD/svg10.dtd">
<svg version="1.0" id="Layer_1" xmlns="http://www.w3.org/2000/svg" xmlns:xlink="http://www.w3.org/1999/xlink" x="0px" y="0px"
	 width="45.102px" height="43.664px" viewBox="0 0 45.102 43.664" enable-background="new 0 0 45.102 43.664" xml:space="preserve">
<path opacity="0.2" fill="#FCEE22" enable-background="new    " d="M24.85,2.794c11.184,0,20.251,9.148,20.251,20.435
	c0,11.285-9.067,20.435-20.251,20.435S4.601,34.515,4.601,23.229S13.667,2.794,24.85,2.794z"/>
<path fill="#05A94F" d="M23.17,0.165C34.674,0.165,44,9.575,44,21.184c0,11.608-9.326,21.019-20.83,21.019S2.34,32.792,2.34,21.184
	C2.341,9.575,11.667,0.165,23.17,0.165z"/>
<path opacity="0.6" fill="none" stroke="#FFFFFF" stroke-width="0.8689" stroke-miterlimit="10" enable-background="new    " d="
	M21.264,0.675c11.187,0,20.255,9.152,20.255,20.44c0,11.289-9.068,20.441-20.255,20.441c-11.188,0-20.258-9.152-20.258-20.441
	C1.007,9.827,10.077,0.675,21.264,0.675z"/>
</svg>
