<?xml version="1.0" encoding="utf-8"?>
<!-- Generator: Adobe Illustrator 16.0.1, SVG Export Plug-In . SVG Version: 6.00 Build 0)  -->
<!DOCTYPE svg PUBLIC "-//W3C//DTD SVG 1.0//EN" "http://www.w3.org/TR/2001/REC-SVG-20010904/DTD/svg10.dtd">
<svg version="1.0" id="Layer_1" xmlns="http://www.w3.org/2000/svg" xmlns:xlink="http://www.w3.org/1999/xlink" x="0px" y="0px"
	 width="48.97px" height="50.512px" viewBox="0 0 48.97 50.512" enable-background="new 0 0 48.97 50.512" xml:space="preserve">
<path opacity="0.2" fill-rule="evenodd" clip-rule="evenodd" fill="#FCEE22" d="M24.785,11.794c10.596,0,19.186,8.667,19.186,19.359
	c0,10.691-8.59,19.358-19.186,19.358c-10.595,0-19.184-8.667-19.184-19.358C5.601,20.461,14.19,11.794,24.785,11.794z"/>
<path fill-rule="evenodd" clip-rule="evenodd" fill="#05A94F" d="M24.989,0C38.233,0,48.97,10.834,48.97,24.199
	c0,13.364-10.737,24.198-23.981,24.198S1.007,37.563,1.007,24.199C1.007,10.834,11.745,0,24.989,0z"/>
<path opacity="0.6" fill-rule="evenodd" clip-rule="evenodd" fill="none" stroke="#FFFFFF" stroke-miterlimit="10" d="M24.32,1.675
	c12.875,0,23.311,10.532,23.311,23.523c0,12.992-10.436,23.524-23.311,23.524S1.007,38.19,1.007,25.198
	C1.007,12.207,11.445,1.675,24.32,1.675z"/>
</svg>
