<?xml version="1.0" encoding="utf-8"?>
<!-- Generator: Adobe Illustrator 16.0.1, SVG Export Plug-In . SVG Version: 6.00 Build 0)  -->
<!DOCTYPE svg PUBLIC "-//W3C//DTD SVG 1.0//EN" "http://www.w3.org/TR/2001/REC-SVG-20010904/DTD/svg10.dtd">
<svg version="1.0" id="Layer_1" xmlns="http://www.w3.org/2000/svg" xmlns:xlink="http://www.w3.org/1999/xlink" x="0px" y="0px"
	 width="62.875px" height="63px" viewBox="0 0 62.875 63" enable-background="new 0 0 62.875 63" xml:space="preserve">
<g>
	<path fill="#FFFFFF" d="M39.219,20.875c-1.604,0-2.906,1.301-2.906,2.906c0,1.604,1.302,2.905,2.906,2.905
		c1.605,0,2.906-1.301,2.906-2.905C42.125,22.176,40.824,20.875,39.219,20.875z M31.5,0C14.103,0,0,14.103,0,31.5S14.103,63,31.5,63
		C48.897,63,63,48.897,63,31.5S48.897,0,31.5,0z M46,28.647c0,1.601-0.927,3.838-2.059,4.971l-13.532,13.53
		c-1.132,1.133-2.986,1.133-4.118,0L15.85,36.708c-1.133-1.133-1.133-2.985,0-4.118l13.532-13.531
		C30.514,17.927,32.751,17,34.353,17h8.735C44.689,17,46,18.311,46,19.912V28.647z"/>
</g>
</svg>
