<?xml version="1.0" encoding="utf-8"?>
<!-- Generator: Adobe Illustrator 16.0.1, SVG Export Plug-In . SVG Version: 6.00 Build 0)  -->
<!DOCTYPE svg PUBLIC "-//W3C//DTD SVG 1.0//EN" "http://www.w3.org/TR/2001/REC-SVG-20010904/DTD/svg10.dtd">
<svg version="1.0" id="Layer_1" xmlns="http://www.w3.org/2000/svg" xmlns:xlink="http://www.w3.org/1999/xlink" x="0px" y="0px"
	 width="41px" height="41px" viewBox="0 0 41 41" enable-background="new 0 0 41 41" xml:space="preserve">
<g>
	<path fill="#FFFFFF" d="M18.524,21.782h3.201l1.258-3.915h-3.202L18.524,21.782z M20.5,0C9.178,0,0,9.178,0,20.5S9.178,41,20.5,41
		C31.822,41,41,31.822,41,20.5S31.822,0,20.5,0z M29.419,17.867h-3.307l-1.257,3.915h2.92l-0.57,3.216h-3.447l-1.989,6.257h-3.166
		l1.989-6.257h-3.201l-1.989,6.257h-3.166l2.024-6.257h-2.849l0.57-3.216h3.412l1.257-3.915h-2.99l0.577-3.251h3.482l1.958-6.082
		h3.13l-1.958,6.082h3.201l1.993-6.082h3.131l-1.993,6.082h2.814L29.419,17.867z"/>
</g>
</svg>
