<?xml version="1.0" encoding="utf-8"?>
<!-- Generator: Adobe Illustrator 16.0.1, SVG Export Plug-In . SVG Version: 6.00 Build 0)  -->
<!DOCTYPE svg PUBLIC "-//W3C//DTD SVG 1.0//EN" "http://www.w3.org/TR/2001/REC-SVG-20010904/DTD/svg10.dtd">
<svg version="1.0" id="Layer_1" xmlns="http://www.w3.org/2000/svg" xmlns:xlink="http://www.w3.org/1999/xlink" x="0px" y="0px"
	 width="41px" height="41px" viewBox="0 0 41 41" enable-background="new 0 0 41 41" xml:space="preserve">
<g>
	<defs>
		<rect id="SVGID_1_" y="-0.125" width="41" height="41"/>
	</defs>
	<clipPath id="SVGID_2_">
		<use xlink:href="#SVGID_1_"  overflow="visible"/>
	</clipPath>
	<path clip-path="url(#SVGID_2_)" fill="#ec1a38" d="M21.483,6.46v11.054c0,0,0.081,0.414,0.352,0.136
		c0.265-0.261,7.869-7.866,7.869-7.866s0.281-0.336-0.221-0.727c-2.077-1.614-4.59-2.686-7.345-3.039
		C21.513,5.936,21.483,6.46,21.483,6.46 M6.578,19.406h11.057c0,0,0.416-0.075,0.147-0.348c-0.276-0.271-7.877-7.877-7.877-7.877
		s-0.336-0.283-0.723,0.223c-1.627,2.083-2.691,4.594-3.042,7.352C6.056,19.376,6.578,19.406,6.578,19.406 M34.408,21.342H23.352
		c0,0-0.409,0.078-0.14,0.348c0.272,0.263,7.869,7.865,7.869,7.865s0.341,0.29,0.729-0.213c1.62-2.079,2.694-4.591,3.044-7.347
		C34.934,21.364,34.408,21.342,34.408,21.342 M31.039,11.209l-7.816,7.819c0,0-0.235,0.344,0.144,0.344h11.139
		c0,0,0.44-0.038,0.359-0.673c-0.335-2.613-1.349-5.142-3.05-7.341C31.431,10.862,31.039,11.209,31.039,11.209 M9.949,29.535
		l7.817-7.816c0,0,0.229-0.346-0.149-0.346H6.49c0,0-0.439,0.033-0.359,0.667c0.318,2.621,1.341,5.146,3.05,7.346
		C9.554,29.883,9.949,29.535,9.949,29.535 M19.524,34.309V23.255c0,0-0.069-0.411-0.342-0.143c-0.269,0.267-7.873,7.872-7.873,7.872
		s-0.285,0.333,0.214,0.728c2.086,1.616,4.595,2.688,7.353,3.036C19.496,34.832,19.524,34.309,19.524,34.309 M11.352,9.83
		l7.825,7.815c0,0,0.339,0.238,0.344-0.146c-0.005-0.382-0.007-11.135-0.007-11.135s-0.036-0.44-0.672-0.357
		C16.231,6.33,13.7,7.355,11.497,9.057C11.002,9.44,11.352,9.83,11.352,9.83 M29.659,30.912l-7.824-7.814
		c0,0-0.342-0.235-0.342,0.144c0,0.387,0.005,11.137,0.005,11.137s0.037,0.442,0.67,0.361c2.617-0.323,5.148-1.354,7.346-3.048
		C30.007,31.304,29.659,30.912,29.659,30.912 M20.5,37.937c-9.674,0-17.558-7.878-17.558-17.562c0-9.682,7.883-17.561,17.558-17.561
		c9.686,0,17.567,7.879,17.567,17.561C38.066,30.059,30.186,37.937,20.5,37.937 M20.5-0.125C9.198-0.125,0,9.07,0,20.375
		c0,11.308,9.198,20.499,20.5,20.499c11.306,0,20.5-9.191,20.5-20.499C41,9.07,31.806-0.125,20.5-0.125"/>
</g>
</svg>
