<?xml version="1.0" encoding="utf-8"?>
<!-- Generator: Adobe Illustrator 16.0.1, SVG Export Plug-In . SVG Version: 6.00 Build 0)  -->
<!DOCTYPE svg PUBLIC "-//W3C//DTD SVG 1.0//EN" "http://www.w3.org/TR/2001/REC-SVG-20010904/DTD/svg10.dtd">
<svg version="1.0" id="Layer_1" xmlns="http://www.w3.org/2000/svg" xmlns:xlink="http://www.w3.org/1999/xlink" x="0px" y="0px"
	 width="41px" height="41px" viewBox="0 0 41 41" enable-background="new 0 0 41 41" xml:space="preserve">
<path fill="#ec1a38" d="M8.649,37.111C3.419,33.412,0,27.321,0,20.427C0,9.146,9.147,0,20.429,0c2.788,0,5.443,0.56,7.864,1.572
	c-1.594,0.591-2.795,1.135-7.781,2.02c-4.288,0.762-7.3,0.761-10.255,1.502C8.896,5.434,7.788,6.326,7.38,8.178
	c-0.186,0.848-1.024,4.941-1.143,5.5c-0.123,0.582,0.406,0.723,0.611,0.52c2.752-2.69,5.136-3.013,8.75-3.395
	c2.162-0.231,5.046-0.509,6.306-1.351c-1.9,2.229-5.868,8.291-8.178,13.023C11.103,27.851,9.245,32.383,8.649,37.111 M29.249,1.999
	c0.013,0.07,0.023,0.146,0.023,0.233c-0.219,1.696-0.845,3.479-2.014,5.618c-1.414,2.592-2.534,4.784-3.53,6.934
	c1.602-1.323,3.653-2.118,5.894-2.118c5.11,0,9.254,4.144,9.254,9.256c0,5.109-4.144,9.252-9.254,9.252
	c-4.684,0-8.551-3.479-9.168-7.989c-0.413,1.398-0.753,2.776-1.004,4.005c-0.857,4.241-0.819,6.946-0.312,7.937
	c-2.667,0.853-5.529,1.879-8.273,3.351c2.854,1.516,6.107,2.378,9.565,2.378c11.281,0,20.427-9.146,20.427-20.428
	C40.855,12.305,36.115,5.29,29.249,1.999 M29.583,17.178l-2.388,0.497c0,0,0.069,0.175,0.031,0.406
	c-0.039,0.232-1.238,7.031-1.238,7.031c-0.254,0.192-1.304,0.541-1.153-0.44c0,0,1.096-6.16,1.133-6.365
	c0.035-0.209-0.103-0.383-0.103-0.383l-2.454,0.516c0,0,0.066,0.389,0.029,0.607c-0.039,0.219-0.979,5.494-1.037,5.999
	c-0.192,1.65,0.812,2.254,2.308,1.947c0,0,0.941-0.281,1.405-0.684c0,0,0.042,0.348,0.161,0.354c0.12,0.01,1.87-0.413,1.87-0.413
	l0.489-2.738h-0.003c0.234-1.316,1.008-5.751,1.044-5.955C29.718,17.338,29.583,17.178,29.583,17.178 M35.718,16.411
	c-0.375-0.208-0.887-0.272-1.539-0.135c-0.376,0.08-1.18,0.545-1.18,0.545c-0.033-0.113-0.16-0.257-0.292-0.249l-2.126,0.409
	c0,0,0.144,0.197,0.094,0.46c-0.023,0.126-1.187,6.535-1.88,10.393c-0.062,0.336-0.104,0.555-0.112,0.59
	c-0.084,0.36-0.206,0.486-0.206,0.486l2.475-0.404c0,0,0.125-0.091,0.209-0.442c0.013-0.049,0.436-2.345,0.447-2.392
	c0.002-0.009,0.003-0.018,0.006-0.026l0.877-0.179c2.287-0.471,3.076-1.585,3.378-3.231c0.062-0.48,0.571-3.404,0.625-3.866
	C36.592,17.495,36.347,16.755,35.718,16.411 M34.086,18.789l-0.675,3.931c-0.123,0.635-0.377,1.006-1.199,1.179
	c-0.148,0.028-0.306,0.068-0.306,0.068l1.053-6.027c0,0,0.075-0.015,0.199-0.036C33.976,17.734,34.169,18.257,34.086,18.789"/>
</svg>
