<?xml version="1.0" encoding="utf-8"?>
<!-- Generator: Adobe Illustrator 16.0.1, SVG Export Plug-In . SVG Version: 6.00 Build 0)  -->
<!DOCTYPE svg PUBLIC "-//W3C//DTD SVG 1.0//EN" "http://www.w3.org/TR/2001/REC-SVG-20010904/DTD/svg10.dtd">
<svg version="1.0" id="Layer_1" xmlns="http://www.w3.org/2000/svg" xmlns:xlink="http://www.w3.org/1999/xlink" x="0px" y="0px"
	 width="41px" height="41px" viewBox="0 0 41 41" enable-background="new 0 0 41 41" xml:space="preserve">
<g>
	<defs>
		<rect id="SVGID_1_" x="0.026" y="0.028" width="40.947" height="40.971"/>
	</defs>
	<clipPath id="SVGID_2_">
		<use xlink:href="#SVGID_1_"  overflow="visible"/>
	</clipPath>
	<path clip-path="url(#SVGID_2_)" fill="#FFFFFF" d="M20.5,0.028c-11.313,0-20.474,9.167-20.474,20.486
		C0.026,31.829,9.186,41,20.5,41c11.305,0,20.473-9.171,20.473-20.485C40.973,9.196,31.805,0.028,20.5,0.028 M26.465,11.807
		c1.695,0,3.082,1.392,3.082,3.114c0,1.718-1.387,3.111-3.082,3.111c-1.707,0-3.088-1.393-3.088-3.111
		C23.377,13.199,24.758,11.807,26.465,11.807 M13.338,12.024c2.857,0,3.857,2.625,3.994,4.006c0.04,0.466-0.289,0.876-0.741,0.922
		c-0.024,0-0.054,0.003-0.08,0.003c-0.417,0-0.774-0.326-0.812-0.76c-0.029-0.25-0.325-2.491-2.361-2.491
		c-1.77,0-2.205,1.76-2.311,2.521c-0.062,0.461-0.486,0.777-0.93,0.712c-0.445-0.065-0.762-0.494-0.695-0.95
		C9.67,14.07,10.846,12.024,13.338,12.024 M32.299,27.014c-1.006,2.17-3.881,6.813-10.303,7.623
		c-0.396,0.085-0.861,0.118-1.412,0.113h-0.057h-0.055h-0.008c-0.549,0.005-1.008-0.028-1.397-0.113
		c-6.434-0.81-9.304-5.453-10.312-7.623C8.444,26.333,8.713,25.9,9.403,25.9c2.027,0,11.11,0.01,11.11,0.01s0.011,0.007,0.015,0.015
		c0.011-0.008,0.013-0.015,0.013-0.015s9.086-0.01,11.106-0.01C32.348,25.9,32.609,26.333,32.299,27.014"/>
</g>
</svg>
